<svg id="gi-logo" xmlns="http://www.w3.org/2000/svg" viewBox="0 0 89.519 13.983">
  <path id="Path_5" data-name="Path 5" d="M7.117,20.625A1.867,1.867,0,0,1,5.73,21.2H1.647V19.554h4.08c.222,0,.334-.107.334-.317V17.462q-.021.488-.825.488H1.963A1.929,1.929,0,0,1,0,16.057V12.211a1.879,1.879,0,0,1,.565-1.388,1.908,1.908,0,0,1,1.4-.574H5.238q.8,0,.825.488v-.485H7.691v8.985A1.846,1.846,0,0,1,7.117,20.625ZM6.061,12.217c0-.21-.112-.317-.334-.317H1.963a.278.278,0,0,0-.317.234.388.388,0,0,0,0,.083V15.98c0,.222.107.334.317.334H5.727a.3.3,0,0,0,.334-.251.388.388,0,0,0,0-.083Z" transform="translate(0.002 -7.217)"/>
  <path id="Path_6" data-name="Path 6" d="M30.524,17.951a1.932,1.932,0,0,1-1.965-1.9v-.657a1.151,1.151,0,0,1,.92-1.139l5.145-1.648v-.222c0-.325-.112-.488-.334-.488H30.524a.278.278,0,0,0-.317.234.388.388,0,0,0,0,.083v.822H28.56v-.814a1.95,1.95,0,0,1,1.929-1.965h3.8a1.96,1.96,0,0,1,1.965,1.962v5.731Zm4.1-3.689-3.746,1.121c-.447.121-.672.328-.672.621a.278.278,0,0,0,.234.317.387.387,0,0,0,.083,0h3.763a.3.3,0,0,0,.334-.251.388.388,0,0,0,0-.083Z" transform="translate(-20.11 -7.223)"/>
  <path id="Path_7" data-name="Path 7" d="M101.1,10.259a1.929,1.929,0,0,1,1.965,1.894v.663a1.151,1.151,0,0,1-.92,1.139L97,15.6V15.8c0,.325.112.488.334.488H101.1a.278.278,0,0,0,.317-.234.387.387,0,0,0,0-.083v-.811h1.648v.822a1.95,1.95,0,0,1-1.929,1.965H97.325a1.962,1.962,0,0,1-1.965-1.959V10.259ZM97,13.949l3.746-1.121c.447-.121.672-.328.672-.621a.3.3,0,0,0-.272-.317H97.325a.3.3,0,0,0-.334.251.387.387,0,0,0,0,.083Z" transform="translate(-67.146 -7.224)"/>
  <path id="Path_8" data-name="Path 8" d="M66.171,17.952V12.225a.278.278,0,0,0-.234-.317H63.719a.278.278,0,0,0-.317.234.388.388,0,0,0,0,.083v5.728H61.754V12.225a.278.278,0,0,0-.234-.317H59.31a.278.278,0,0,0-.317.234.388.388,0,0,0,0,.083v5.728H57.34V10.26h8.515a1.879,1.879,0,0,1,1.37.592,1.814,1.814,0,0,1,.592,1.37v5.731Z" transform="translate(-40.375 -7.224)"/>
  <path id="Path_9" data-name="Path 9" d="M265.931,10.259a1.929,1.929,0,0,1,1.964,1.894v.663a1.151,1.151,0,0,1-.92,1.139L261.83,15.6V15.8c0,.325.112.488.334.488h3.763a.278.278,0,0,0,.317-.234.384.384,0,0,0,0-.083v-.811h1.648v.822a1.95,1.95,0,0,1-1.929,1.965h-3.8a1.962,1.962,0,0,1-1.965-1.959V10.259Zm-4.1,3.689,3.746-1.121c.447-.121.672-.328.672-.621a.3.3,0,0,0-.272-.317h-3.811a.3.3,0,0,0-.334.251.392.392,0,0,0,0,.083Z" transform="translate(-183.216 -7.224)"/>
  <path id="Path_10" data-name="Path 10" d="M125.825,11.668a.4.4,0,0,1-.3.121h-.8a.411.411,0,0,1-.417-.405v-.817a.414.414,0,0,1,.411-.417h.808a.417.417,0,0,1,.417.417h0v.8A.405.405,0,0,1,125.825,11.668Z" transform="translate(-87.531 -7.147)"/>
  <path id="Path_11" data-name="Path 11" d="M124.27,23.747V18.49h1.648v5.257Z" transform="translate(-87.503 -13.02)"/>
  <path id="Path_12" data-name="Path 12" d="M139.115,17.952V12.224c0-.21-.112-.317-.334-.317h-3.766a.278.278,0,0,0-.317.234.388.388,0,0,0,0,.083v5.728H133.05V10.26h5.728a1.941,1.941,0,0,1,1.95,1.965v5.728Z" transform="translate(-93.685 -7.224)"/>
  <path id="Path_13" data-name="Path 13" d="M163.575,1.648c-.222,0-.334.107-.334.317V3.039h1.648V4.686h-1.648v6.041h-1.627V4.683H160.3V3.036h1.314V1.965A1.95,1.95,0,0,1,163.543,0h2.151V1.648Z" transform="translate(-112.873)"/>
  <path id="Path_14" data-name="Path 14" d="M290.734,11.908c-.222,0-.334.107-.334.317v5.743h-1.63V12.225A1.95,1.95,0,0,1,290.7,10.26h2.154v1.648Z" transform="translate(-203.333 -7.224)"/>
  <path id="Path_15" data-name="Path 15" d="M207.674,11.908c-.222,0-.334.107-.334.317v5.743h-1.63V12.225a1.95,1.95,0,0,1,1.929-1.965h2.154v1.648Z" transform="translate(-144.848 -7.224)"/>
  <path id="Path_16" data-name="Path 16" d="M184.188,17.386a1.879,1.879,0,0,1-1.388.565h-3.766a1.932,1.932,0,0,1-1.965-1.9V12.223A1.95,1.95,0,0,1,179,10.259h3.8a1.96,1.96,0,0,1,1.962,1.962v3.766a1.908,1.908,0,0,1-.574,1.4Zm-1.053-5.163c0-.21-.112-.317-.334-.317h-3.766a.278.278,0,0,0-.317.234.388.388,0,0,0,0,.083v3.763c0,.222.107.334.317.334H182.8a.3.3,0,0,0,.334-.251.384.384,0,0,0,0-.083Z" transform="translate(-124.681 -7.223)"/>
  <path id="Path_17" data-name="Path 17" d="M230.974,17.952V12.225a.278.278,0,0,0-.234-.317h-2.219a.278.278,0,0,0-.317.234.388.388,0,0,0,0,.083v5.728h-1.648V12.225a.278.278,0,0,0-.234-.317H224.1a.278.278,0,0,0-.317.234.388.388,0,0,0,0,.083v5.728H222.14V10.26h8.515a1.879,1.879,0,0,1,1.37.592,1.825,1.825,0,0,1,.592,1.37v5.731Z" transform="translate(-156.417 -7.224)"/>
</svg>
