<svg height="20.338" viewBox="0 0 1001 20.338" width="1001" preserveAspectRatio="none" xmlns="http://www.w3.org/2000/svg"><path d="m952.6 7.863-.014-.014h3.47l-.014.014zm-1.142 4.7h5.737l-2.875-2.856 1.719-1.844h44.961v12.537h-1001v-12.541h141.748l3.99-4.214h6.736l8.325 8.918.012-.012.009.012 4.781-4.7h75.911l1.719 1.844-2.872 2.856h5.741l-2.865-2.856 1.723-1.844h42.6l2.442-2.317 4.825-4.806 3.215 2.976 16.29-.006h2.611l6.6 6.74h17.534l3.774-3.663 38.716.02 3.009 2.9 4.509-4.5 1.507 1.6 86.107-.02 6.654-6.721 12.539 12.5v-.006l.006.006 4.719-4.7h2l1.094 1.091-1.739 1.727h3.47l-1.723-1.734 1.075-1.069 40.631-.017v-.005h7.315 4.155l80.254.019 1.075 1.069-1.731 1.727h3.471l-1.74-1.727 1.095-1.091h2l4.72 4.7.006-.006v.006l12.544-12.49 6.653 6.721 46.484.02 1.507-1.6 4.509 4.5 3.008-2.866 129.952-.022 3.774 3.631h17.534l6.6-6.773 18.9.006 3.219-2.943 4.821 4.807 2.447 2.316h42.6l1.723 1.844zm-773.346-2.7h-.9v2.7h.9zm1.368 0h-.9v2.7h.9zm6.32 0h-.9v2.7h.9zm10.843 0h-2.713v2.7h2.708zm108.18-3.394h-.9v.9h.9zm3.462 0h-.9v2.7h.9zm7 0h-.9v.9h.9zm0 1.8h-.9v.9h.9zm567.876-1.8h-.9v.9h.9zm0 1.8h-.9v.9h.9zm7-1.8h-.9v2.7h.9zm3.462 0h-.9v.9h.9zm-652.123 1.38h3.471l-.014.014h-3.443zm151.718-4.7-2.134 2.061-2.14-2.061zm324.154 0-2.14 2.061-2.132-2.063z" fill-rule="evenodd" transform="translate(-.001 -.066)"/></svg>