<svg xmlns="http://www.w3.org/2000/svg" viewBox="0 0 258.26 267.179">
  <g id="tab-left" data-name="Group 16" transform="translate(-663.007 -459.847)">
    <path id="tab" data-name="Path 3" d="M17.022,260.7V43.262h255.26V289.89H47.631Z" transform="translate(647.485 418.084)" fill="none" stroke="#161615" stroke-miterlimit="10" stroke-width="3"/>
      <path id="logo" data-name="Icon awesome-instagram" d="M49.1,26.156A25.172,25.172,0,1,0,74.262,51.328,25.129,25.129,0,0,0,49.1,26.156Zm0,41.537A16.365,16.365,0,1,1,65.457,51.328,16.393,16.393,0,0,1,49.1,67.693ZM81.162,25.126a5.87,5.87,0,1,1-5.87-5.871A5.857,5.857,0,0,1,81.162,25.126ZM97.83,31.085c-.372-7.865-2.168-14.832-7.929-20.571-5.739-5.74-12.7-7.536-20.567-7.931-8.1-.46-32.395-.46-40.5,0-7.841.372-14.806,2.169-20.567,7.909S.734,23.2.34,31.063c-.46,8.106-.46,32.4,0,40.508C.712,79.436,2.508,86.4,8.269,92.142s12.7,7.536,20.567,7.931c8.1.46,32.395.46,40.5,0C77.2,99.7,84.162,97.9,89.9,92.142c5.739-5.74,7.535-12.707,7.929-20.571.46-8.106.46-32.38,0-40.486ZM87.36,80.268A16.566,16.566,0,0,1,78.03,89.6c-6.461,2.563-21.793,1.972-28.934,1.972S26.6,92.142,20.162,89.6a16.566,16.566,0,0,1-9.331-9.333C8.269,73.805,8.86,58.47,8.86,51.328s-.569-22.5,1.971-28.94a16.567,16.567,0,0,1,9.331-9.333c6.461-2.563,21.793-1.972,28.934-1.972s22.494-.57,28.934,1.972a16.567,16.567,0,0,1,9.331,9.333c2.563,6.463,1.971,21.8,1.971,28.94S89.923,73.827,87.36,80.268Z" transform="translate(745.511 533.562)"/>
    <rect id="r24-bg" data-name="Rectangle 12" width="45.817" height="35.999" transform="translate(853.504 691.026)" fill="#fcee0d"/>
    <text id="r24" transform="translate(875.595 711.481)" font-size="11" font-family="Helvetica-Bold, Helvetica" font-weight="700"><tspan x="-10.09" y="0">R24</tspan></text>
  </g>
</svg>
