<svg xmlns="http://www.w3.org/2000/svg" width="26.647" height="21.47" viewBox="0 0 26.647 21.47">
  <g id="warning" transform="translate(2188.358 2906.51)">
    <path id="Path_208" data-name="Path 208" d="M-2154.5-2900.446l-.581-.4c.05-.095.092-.185.143-.269.909-1.483,1.811-2.971,2.736-4.443a3.633,3.633,0,0,1,.684-.756.689.689,0,0,1,.941-.012,3.033,3.033,0,0,1,.634.665c.967,1.541,1.912,3.1,2.864,4.647a1.739,1.739,0,0,1,.08.17l-.582.4,5.222,8.752.936-.528c.072.1.141.185.2.278,1.063,1.656,2.128,3.311,3.183,4.973a1.558,1.558,0,0,1,.3,1.133.92.92,0,0,1-.779.762,1.9,1.9,0,0,1-.443.037q-3.228,0-6.456,0c-.122,0-.245-.016-.4-.026v-.985h-10.441v.975c-.149.014-.268.036-.387.036q-3.245,0-6.491,0a2.033,2.033,0,0,1-.477-.046.971.971,0,0,1-.72-1.211,2.573,2.573,0,0,1,.3-.688c1.042-1.643,2.094-3.279,3.145-4.917.066-.1.138-.2.223-.329l.939.54Zm3.447,13.248h8.793c.149,0,.3.011.447,0a.572.572,0,0,0,.5-.853c-.051-.1-.115-.2-.175-.3q-4.208-6.8-8.417-13.608c-.222-.359-.451-.716-.7-1.06a.531.531,0,0,0-.893,0c-.146.2-.288.412-.42.625q-1.159,1.867-2.312,3.738-3.223,5.213-6.446,10.426c-.133.216-.279.434-.119.7a.726.726,0,0,0,.7.33Q-2155.566-2887.2-2151.049-2887.2Z" transform="translate(-23.996)"/>
    <path id="Path_220" data-name="Path 220" d="M-1981.78-2795.964c-.032.835-.062,1.67-.1,2.5a1.622,1.622,0,0,1-.07.438.721.721,0,0,1-.738.5.709.709,0,0,1-.668-.589,3.153,3.153,0,0,1-.046-.547c-.035-1.591-.07-3.181-.1-4.772a.844.844,0,0,1,.643-.966.847.847,0,0,1,1.163.891c-.015.847-.06,1.693-.092,2.539Z" transform="translate(-192.411 -99.7)"/>
    <path id="Path_221" data-name="Path 221" d="M-1988.007-2683.918a1.327,1.327,0,0,1-1.345,1.346,1.335,1.335,0,0,1-1.355-1.372,1.331,1.331,0,0,1,1.365-1.328A1.325,1.325,0,0,1-1988.007-2683.918Z" transform="translate(-185.696 -206.006)"/>
  </g>
</svg>
